<svg width="137" height="44" viewBox="0 0 137 44" fill="none" xmlns="http://www.w3.org/2000/svg">
<g id="appstore" clip-path="url(#clip0_427_78)">
<g id="Group">
<path id="Vector" d="M8.71094 44.0389C8.35894 44.0389 8.01494 44.0339 7.66594 44.0259C6.94229 44.0165 6.22033 43.9537 5.50594 43.8379C4.83984 43.7238 4.19444 43.5111 3.59094 43.2069C2.99364 42.9052 2.44869 42.5095 1.97694 42.0349C1.49831 41.5663 1.0997 41.0224 0.796937 40.4249C0.491453 39.8244 0.279989 39.1806 0.169938 38.5159C0.0512327 37.8018 -0.0129527 37.0798 -0.0220625 36.3559C-0.0290625 36.1119 -0.0390625 35.3029 -0.0390625 35.3029V8.68294C-0.0390625 8.68294 -0.0290625 7.88594 -0.0220625 7.65194C-0.0130625 6.92894 0.0509375 6.20794 0.168938 5.49394C0.27931 4.82729 0.491097 4.18148 0.796937 3.57894C1.41261 2.37892 2.39004 1.40289 3.59094 0.788938C4.19249 0.486447 4.83596 0.275776 5.49994 0.163938C6.21694 0.0469375 6.94194 -0.0160625 7.66794 -0.0260625L8.71094 -0.0390625H127.472L128.527 -0.0250625C129.246 -0.0160625 129.964 0.0459375 130.674 0.162938C131.345 0.276329 131.996 0.488991 132.605 0.793938C133.804 1.40918 134.78 2.38451 135.396 3.58294C135.697 4.18094 135.906 4.82194 136.015 5.48294C136.135 6.20194 136.202 6.92894 136.215 7.65794C136.219 7.98394 136.219 8.33494 136.219 8.68294C136.228 9.11594 136.228 9.52694 136.228 9.94194V34.0589C136.228 34.4789 136.228 34.8869 136.219 35.2989C136.219 35.6729 136.219 36.0169 136.214 36.3689C136.201 37.0859 136.135 37.7989 136.017 38.5059C135.909 39.1755 135.699 39.8245 135.393 40.4299C135.088 41.0206 134.692 41.5596 134.219 42.0269C133.747 42.5038 133.201 42.9016 132.602 43.2049C131.995 43.5117 131.345 43.7254 130.674 43.8389C129.96 43.9549 129.238 44.0189 128.514 44.0269C128.176 44.0349 127.821 44.0389 127.477 44.0389L126.225 44.0419L8.70994 44.0389H8.71094Z" fill="#272A2C"/>
<path id="Vector_2" d="M27.8379 21.8692C27.8522 20.8683 28.1194 19.8873 28.6145 19.0173C29.1096 18.1474 29.8167 17.4167 30.6699 16.8932C30.1265 16.1191 29.4101 15.4824 28.5775 15.0336C27.745 14.5849 26.8192 14.3365 25.8739 14.3082C23.8559 14.0972 21.8999 15.5122 20.8709 15.5122C19.8229 15.5122 18.2399 14.3292 16.5349 14.3642C15.4323 14.3995 14.3575 14.7191 13.4149 15.2922C12.4736 15.8646 11.6967 16.6712 11.1599 17.6332C8.83586 21.6452 10.5699 27.5432 12.7959 30.7862C13.9089 32.3742 15.2109 34.1492 16.9149 34.0862C18.5809 34.0162 19.2039 33.0262 21.2159 33.0262C23.2089 33.0262 23.7939 34.0862 25.5309 34.0462C27.3209 34.0162 28.4469 32.4502 29.5209 30.8472C30.321 29.7159 30.937 28.4651 31.3459 27.1412C30.3072 26.7033 29.4204 25.9695 28.7959 25.0312C28.1725 24.0944 27.8392 22.9945 27.8379 21.8692ZM24.5559 12.1752C25.531 11.009 26.0118 9.50792 25.8959 7.99219C24.4067 8.1477 23.0306 8.85773 22.0409 9.98119C21.558 10.5291 21.1879 11.167 20.952 11.8582C20.716 12.5494 20.6188 13.2803 20.6659 14.0092C21.4106 14.0168 22.1474 13.8557 22.8211 13.5381C23.4948 13.2205 24.0878 12.7546 24.5559 12.1752ZM47.8359 30.2242H42.3659L41.0529 34.0922H38.7359L43.9159 19.7822H46.3239L51.5049 34.0922H49.1499L47.8369 30.2242H47.8359ZM42.9329 28.4392H47.2689L45.1309 22.1622H45.0709L42.9329 28.4392ZM62.6949 28.8772C62.6949 32.1182 60.9549 34.2012 58.3289 34.2012C57.6643 34.2356 57.0035 34.0828 56.4215 33.7601C55.8395 33.4375 55.3598 32.958 55.0369 32.3762H54.9869V37.5442H52.8389V23.6592H54.9189V25.3942H54.9579C55.2944 24.8143 55.782 24.3366 56.3685 24.0119C56.9551 23.6872 57.6188 23.5276 58.2889 23.5502C60.9439 23.5502 62.6949 25.6432 62.6949 28.8762V28.8772ZM60.4869 28.8772C60.4869 26.7642 59.3929 25.3752 57.7219 25.3752C56.0819 25.3752 54.9779 26.7932 54.9779 28.8762C54.9779 30.9782 56.0819 32.3862 57.7219 32.3862C59.3919 32.3862 60.4869 31.0082 60.4869 28.8762V28.8772ZM74.2099 28.8772C74.2099 32.1182 72.4699 34.2012 69.8439 34.2012C69.1793 34.2356 68.5185 34.0828 67.9365 33.7601C67.3545 33.4375 66.8748 32.958 66.5519 32.3762H66.5019V37.5442H64.3549V23.6592H66.4329V25.3942H66.4729C66.8094 24.8143 67.297 24.3366 67.8835 24.0119C68.4701 23.6872 69.1338 23.5276 69.8039 23.5502C72.4599 23.5502 74.2099 25.6432 74.2099 28.8762V28.8772ZM72.0029 28.8772C72.0029 26.7642 70.9079 25.3752 69.2379 25.3752C67.5969 25.3752 66.4929 26.7932 66.4929 28.8762C66.4929 30.9782 67.5969 32.3862 69.2379 32.3862C70.9079 32.3862 72.0029 31.0082 72.0029 28.8762V28.8772ZM81.8199 30.1052C81.9799 31.5252 83.3619 32.4552 85.2509 32.4552C87.0609 32.4552 88.3639 31.5252 88.3639 30.2452C88.3639 29.1342 87.5779 28.4692 85.7189 28.0132L83.8589 27.5662C81.2239 26.9322 79.9999 25.7032 79.9999 23.7082C79.9999 21.2392 82.1579 19.5432 85.2199 19.5432C88.2539 19.5432 90.3329 21.2392 90.4029 23.7082H88.2349C88.1049 22.2802 86.9209 21.4182 85.1909 21.4182C83.4609 21.4182 82.2779 22.2902 82.2779 23.5602C82.2779 24.5722 83.0339 25.1672 84.8829 25.6232L86.4639 26.0102C89.4089 26.7042 90.6309 27.8832 90.6309 29.9772C90.6309 32.6542 88.4929 34.3312 85.0919 34.3312C81.9099 34.3312 79.7609 32.6932 79.6219 30.1052H81.8199ZM95.2679 21.1902V23.6592H97.2579V25.3552H95.2679V31.1072C95.2679 32.0002 95.6659 32.4172 96.5409 32.4172C96.7769 32.4122 97.0129 32.3962 97.2469 32.3672V34.0532C96.8539 34.1264 96.4545 34.1596 96.0549 34.1522C93.9359 34.1522 93.1099 33.3582 93.1099 31.3352V25.3552H91.5899V23.6592H93.1109V21.1892H95.2689L95.2679 21.1902ZM98.4089 28.8772C98.4089 25.5932 100.347 23.5312 103.371 23.5312C106.404 23.5312 108.334 25.5942 108.334 28.8762C108.334 32.1682 106.414 34.2222 103.371 34.2222C100.328 34.2222 98.4089 32.1682 98.4089 28.8762V28.8772ZM106.146 28.8772C106.146 26.6242 105.111 25.2952 103.371 25.2952C101.631 25.2952 100.596 26.6352 100.596 28.8762C100.596 31.1372 101.631 32.4562 103.371 32.4562C105.111 32.4562 106.146 31.1372 106.146 28.8762V28.8772ZM110.105 23.6592H112.153V25.4352H112.202C112.341 24.8796 112.667 24.3889 113.126 24.0456C113.584 23.7022 114.147 23.5273 114.719 23.5502C114.967 23.5492 115.213 23.5762 115.455 23.6302V25.6332C115.142 25.5378 114.816 25.4939 114.49 25.5032C114.178 25.4907 113.867 25.5456 113.578 25.6642C113.29 25.7827 113.03 25.9622 112.817 26.1902C112.604 26.4181 112.444 26.6893 112.346 26.9852C112.249 27.2811 112.217 27.5946 112.252 27.9042V34.0922H110.104L110.105 23.6592ZM125.357 31.0272C125.068 32.9222 123.218 34.2222 120.852 34.2222C117.808 34.2222 115.919 32.1882 115.919 28.9262C115.919 25.6532 117.818 23.5312 120.761 23.5312C123.656 23.5312 125.476 25.5142 125.476 28.6772V29.4112H118.087V29.5412C118.053 29.9257 118.101 30.3131 118.229 30.6774C118.356 31.0418 118.56 31.3748 118.826 31.6543C119.092 31.9338 119.415 32.1534 119.773 32.2984C120.131 32.4434 120.515 32.5105 120.901 32.4952C121.408 32.5434 121.917 32.4267 122.353 32.1624C122.788 31.8981 123.127 31.5003 123.318 31.0282H125.357V31.0272ZM118.097 27.9142H123.328C123.357 27.3933 123.223 26.8764 122.944 26.4355C122.665 25.9945 122.256 25.6515 121.773 25.4542C121.452 25.3226 121.108 25.2586 120.761 25.2662C120.411 25.2643 120.065 25.3313 119.742 25.4635C119.418 25.5956 119.124 25.7902 118.876 26.0362C118.628 26.2823 118.432 26.5749 118.298 26.8973C118.165 27.2196 118.096 27.5652 118.097 27.9142ZM41.4079 11.9172H42.3299C42.4883 11.9368 42.6491 11.9234 42.8021 11.878C42.9551 11.8325 43.0971 11.756 43.2192 11.6531C43.3412 11.5502 43.4407 11.4232 43.5114 11.28C43.5821 11.1369 43.6224 10.9807 43.6299 10.8212C43.6299 10.1872 43.1509 9.77819 42.3399 9.77819C42.0952 9.74433 41.8459 9.78477 41.6245 9.89425C41.403 10.0037 41.2196 10.1772 41.0979 10.3922C41.0179 10.5352 40.9669 10.6922 40.9479 10.8552H39.9359C39.9532 10.5596 40.0315 10.2707 40.1657 10.0067C40.2999 9.74277 40.4872 9.50938 40.7159 9.32119C40.9447 9.13241 41.2098 8.99266 41.4948 8.91061C41.7799 8.82856 42.0787 8.80595 42.3729 8.84419C43.7299 8.84419 44.6859 9.60219 44.6859 10.6932C44.6891 11.0592 44.5663 11.4152 44.3382 11.7014C44.11 11.9877 43.7904 12.1867 43.4329 12.2652V12.3462C43.8579 12.3662 44.2569 12.5502 44.5439 12.8622C44.8319 13.1742 44.9839 13.5862 44.9669 14.0092C44.9198 14.468 44.7356 14.9019 44.4382 15.2544C44.1409 15.6069 43.7441 15.8615 43.2999 15.9852C43.0047 16.0679 42.696 16.091 42.3919 16.0532C41.9331 16.1151 41.4663 16.0371 41.0525 15.8294C40.6388 15.6217 40.2974 15.2941 40.0729 14.8892C39.9249 14.6204 39.8327 14.3245 39.8019 14.0192H40.8299C40.8919 14.6762 41.4979 15.1012 42.3919 15.1012C43.2849 15.1012 43.8689 14.6242 43.8689 13.9522C43.8689 13.2712 43.3189 12.8522 42.3589 12.8522H41.4079V11.9182V11.9172ZM46.1349 14.4192C46.1349 13.4852 46.8329 12.9472 48.0699 12.8702L49.4799 12.7902V12.3412C49.4799 11.7932 49.1179 11.4842 48.4139 11.4842C47.8409 11.4842 47.4449 11.6942 47.3299 12.0612H46.3359C46.4409 11.1692 47.2829 10.5982 48.4629 10.5982C49.7669 10.5982 50.5029 11.2452 50.5029 12.3412V15.8872H49.5129V15.1572H49.4329C49.2677 15.4193 49.0358 15.6329 48.761 15.7761C48.4862 15.9193 48.1784 15.987 47.8689 15.9722C47.5401 16.0061 47.2091 15.9358 46.9225 15.7712C46.6359 15.6067 46.4083 15.3562 46.2719 15.0552C46.1819 14.8552 46.1359 14.6382 46.1349 14.4192ZM49.4799 13.9762V13.5422L48.2089 13.6232C47.4919 13.6712 47.1669 13.9142 47.1669 14.3712C47.1669 14.8382 47.5739 15.1112 48.1319 15.1112C48.3782 15.1358 48.6263 15.0855 48.8436 14.9669C49.0609 14.8482 49.2374 14.6667 49.3499 14.4462C49.4244 14.2999 49.4686 14.14 49.4799 13.9762ZM53.2299 11.5602V15.8872H52.2019V10.6972H55.6279V11.5602H53.2299ZM61.8519 13.2902C61.8519 14.9392 61.0159 15.9722 59.7019 15.9722C59.3798 15.994 59.0583 15.9236 58.7748 15.7694C58.4913 15.6151 58.2575 15.3834 58.1009 15.1012H58.0199V17.6112H56.9929V10.6982H57.9809V11.5552H58.0579C58.2168 11.2626 58.4535 11.0196 58.7419 10.8532C59.0302 10.6868 59.359 10.6034 59.6919 10.6122C61.0159 10.6122 61.8519 11.6412 61.8519 13.2902ZM60.7959 13.2902C60.7959 12.1942 60.2759 11.5322 59.4059 11.5322C58.5409 11.5322 58.0009 12.2082 58.0009 13.2942C58.0009 14.3762 58.5409 15.0532 59.4009 15.0532C60.2759 15.0532 60.7959 14.3912 60.7959 13.2902ZM63.2199 17.7452V16.8642C63.3309 16.8782 63.4429 16.8842 63.5549 16.8832C63.7732 16.899 63.9898 16.834 64.1633 16.7005C64.3368 16.567 64.4552 16.3743 64.4959 16.1592L64.5729 15.9062L62.6899 10.6972H63.8079L65.1119 14.8182H65.1939L66.4939 10.6972H67.5829L65.6429 16.1002C65.1979 17.3632 64.7059 17.7682 63.6449 17.7682C63.5599 17.7682 63.3149 17.7582 63.2199 17.7442V17.7452ZM68.3829 14.4142H69.4049C69.5049 14.8722 69.9349 15.1102 70.5369 15.1102C71.2209 15.1102 71.6409 14.8102 71.6409 14.3432C71.6409 13.8432 71.2639 13.6032 70.5369 13.6032H69.7579V12.8082H70.5239C71.1439 12.8082 71.4599 12.5702 71.4599 12.1372C71.4599 11.7552 71.1549 11.4652 70.5239 11.4652C69.9489 11.4652 69.5289 11.7082 69.4629 12.1172H68.4729C68.5489 11.6465 68.8058 11.2242 69.1887 10.9402C69.5717 10.6563 70.0504 10.5332 70.5229 10.5972C71.7599 10.5972 72.4679 11.1552 72.4679 12.0322C72.4738 12.2767 72.3953 12.5158 72.2456 12.7093C72.0959 12.9027 71.8841 13.0386 71.6459 13.0942V13.1752C71.9291 13.2116 72.1893 13.3506 72.377 13.5658C72.5648 13.781 72.6672 14.0576 72.6649 14.3432C72.6649 15.3292 71.8229 15.9822 70.5369 15.9822C69.4009 15.9822 68.4769 15.4622 68.3829 14.4142ZM74.1439 15.8872V10.6972H75.1609V14.2672H75.2429L77.6409 10.6972H78.6589V15.8872H77.6399V12.2992H77.5629L75.1609 15.8872H74.1429H74.1439ZM84.2659 11.5602H82.6279V15.8872H81.5999V11.5602H79.9599V10.6972H84.2659V11.5592V11.5602ZM89.7989 14.4862C89.6587 14.9612 89.3558 15.3718 88.9434 15.6461C88.5309 15.9203 88.0352 16.0407 87.5429 15.9862C87.0269 15.9996 86.5206 15.844 86.1012 15.5431C85.6818 15.2421 85.3723 14.8123 85.2199 14.3192C85.1197 13.9924 85.0921 13.6477 85.1389 13.3092C85.0931 12.9691 85.1212 12.6231 85.2213 12.2949C85.3214 11.9666 85.4911 11.6639 85.7189 11.4072C85.9465 11.1497 86.2269 10.9442 86.5409 10.8044C86.8549 10.6647 87.1952 10.594 87.5389 10.5972C88.9859 10.5972 89.8609 11.5842 89.8609 13.2132V13.5712H86.1859V13.6282C86.1609 13.9156 86.2276 14.2035 86.3763 14.4507C86.525 14.6979 86.7482 14.8916 87.0139 15.0042C87.1899 15.0792 87.3799 15.1172 87.5719 15.1142C87.817 15.1434 88.0653 15.0993 88.2855 14.9875C88.5056 14.8758 88.6877 14.7013 88.8089 14.4862H89.7989ZM86.1859 12.8132H88.8129C88.8261 12.6387 88.8025 12.4635 88.7438 12.2987C88.685 12.1339 88.5923 11.9833 88.4716 11.8567C88.351 11.73 88.2051 11.63 88.0434 11.5633C87.8817 11.4965 87.7077 11.4645 87.5329 11.4692C87.2656 11.4658 87.0035 11.5429 86.7806 11.6904C86.5577 11.8378 86.3843 12.0489 86.2829 12.2962C86.2169 12.4602 86.1829 12.6362 86.1859 12.8132ZM94.1519 10.6972H96.4999C97.5169 10.6972 98.1149 11.2122 98.1149 12.0172C98.1166 12.2732 98.0301 12.522 97.8698 12.7217C97.7095 12.9213 97.4852 13.0596 97.2349 13.1132V13.1942C97.5382 13.2136 97.8227 13.3485 98.0297 13.5711C98.2367 13.7937 98.3505 14.0872 98.3479 14.3912C98.3479 15.2962 97.6649 15.8872 96.5229 15.8872H94.1529V10.6972H94.1519ZM95.1699 11.4842V12.8272H96.1879C96.8079 12.8272 97.1059 12.5892 97.1059 12.1502C97.1059 11.7462 96.8469 11.4842 96.3019 11.4842H95.1699ZM95.1699 13.5802V15.1002H96.3879C96.9949 15.1002 97.3199 14.8332 97.3199 14.3432C97.3199 13.8232 96.9519 13.5802 96.2599 13.5802H95.1699Z" fill="white"/>
</g>
</g>
<defs>
<clipPath id="clip0_427_78">
<rect width="137" height="44" fill="white"/>
</clipPath>
</defs>
</svg>
